<?xml version="1.0" encoding="UTF-8" standalone="no"?>
<svg
   xmlns:dc="http://purl.org/dc/elements/1.1/"
   xmlns:cc="http://creativecommons.org/ns#"
   xmlns:rdf="http://www.w3.org/1999/02/22-rdf-syntax-ns#"
   xmlns:svg="http://www.w3.org/2000/svg"
   xmlns="http://www.w3.org/2000/svg"
   xmlns:sodipodi="http://sodipodi.sourceforge.net/DTD/sodipodi-0.dtd"
   xmlns:inkscape="http://www.inkscape.org/namespaces/inkscape"
   sodipodi:docname="invoice.svg"
   inkscape:version="1.0 (4035a4fb49, 2020-05-01)"
   id="svg855"
   version="1.1"
   viewBox="0 0 270.93333 158.75"
   height="600"
   width="1024"
   inkscape:export-filename="C:\Users\mpaul_000\OneDrive\_Me\Game Development\Art\beadel_the_carpenter\invoice.png"
   inkscape:export-xdpi="96.0103"
   inkscape:export-ydpi="96.0103">
  <defs
     id="defs849">
    <marker
       inkscape:isstock="true"
       style="overflow:visible"
       id="marker1280"
       refX="0.0"
       refY="0.0"
       orient="auto"
       inkscape:stockid="EmptyDiamondL">
      <path
         transform="scale(0.8)"
         style="fill-rule:evenodd;fill:#ffffff;stroke:#000000;stroke-width:1pt;stroke-opacity:1"
         d="M 0,-7.0710768 L -7.0710894,0 L 0,7.0710589 L 7.0710462,0 L 0,-7.0710768 z "
         id="path1278" />
    </marker>
    <marker
       inkscape:isstock="true"
       style="overflow:visible"
       id="marker1270"
       refX="0.0"
       refY="0.0"
       orient="auto"
       inkscape:stockid="EmptyDiamondL">
      <path
         transform="scale(0.8)"
         style="fill-rule:evenodd;fill:#ffffff;stroke:#000000;stroke-width:1pt;stroke-opacity:1"
         d="M 0,-7.0710768 L -7.0710894,0 L 0,7.0710589 L 7.0710462,0 L 0,-7.0710768 z "
         id="path1268" />
    </marker>
    <marker
       inkscape:stockid="EmptyDiamondL"
       orient="auto"
       refY="0.0"
       refX="0.0"
       id="EmptyDiamondL"
       style="overflow:visible"
       inkscape:isstock="true"
       inkscape:collect="always">
      <path
         id="path986"
         d="M 0,-7.0710768 L -7.0710894,0 L 0,7.0710589 L 7.0710462,0 L 0,-7.0710768 z "
         style="fill-rule:evenodd;fill:#ffffff;stroke:#000000;stroke-width:1pt;stroke-opacity:1"
         transform="scale(0.8)" />
    </marker>
    <marker
       inkscape:stockid="Arrow1Lstart"
       orient="auto"
       refY="0.0"
       refX="0.0"
       id="Arrow1Lstart"
       style="overflow:visible"
       inkscape:isstock="true">
      <path
         id="path880"
         d="M 0.0,0.0 L 5.0,-5.0 L -12.5,0.0 L 5.0,5.0 L 0.0,0.0 z "
         style="fill-rule:evenodd;stroke:#000000;stroke-width:1pt;stroke-opacity:1;fill:#000000;fill-opacity:1"
         transform="scale(0.8) translate(12.5,0)" />
    </marker>
    <inkscape:path-effect
       message="Use fill-rule evenodd on &lt;b&gt;fill and stroke&lt;/b&gt; dialog if no flatten result after convert clip to paths."
       hide_clip="false"
       flatten="false"
       inverse="true"
       lpeversion="1"
       is_visible="true"
       id="path-effect867"
       effect="powerclip" />
    <filter
       height="1.023238"
       y="-0.011619"
       width="1.0284306"
       x="-0.014215282"
       id="filter1424"
       style="color-interpolation-filters:sRGB"
       inkscape:collect="always">
      <feGaussianBlur
         id="feGaussianBlur1426"
         stdDeviation="0.71553696"
         inkscape:collect="always" />
    </filter>
    <clipPath
       clipPathUnits="userSpaceOnUse"
       id="clipPath851">
      <path
         transform="matrix(0.84339869,0.20943943,-0.20943943,0.84339869,37.902171,-16.277904)"
         inkscape:transform-center-y="-0.40070516"
         inkscape:transform-center-x="-7.5554945"
         d="m 145.30376,112.00998 c -21.45572,5.46749 -14.8418,39.25528 -35.41355,31.06721 -20.571746,-8.18808 7.45158,-28.18938 -4.37849,-46.905433 C 93.681657,77.4557 63.591371,94.186912 65.02167,72.091766 66.451969,49.996619 94.13402,70.467642 108.27836,53.433001 122.42269,36.398361 97.211956,12.951028 118.66768,7.4835475 140.12339,2.016067 129.20852,34.669155 149.78027,42.857226 c 20.57174,8.18807 35.08093,-23.034391 46.911,-4.318334 11.83006,18.716058 -22.59775,18.425754 -24.02805,40.5209 -1.4303,22.095148 32.74761,26.245938 18.60328,43.280578 -14.14434,17.03464 -24.50702,-15.79787 -45.96274,-10.33039 z"
         inkscape:randomized="0"
         inkscape:rounded="0.47"
         inkscape:flatsided="false"
         sodipodi:arg2="1.949599"
         sodipodi:arg1="1.3212805"
         sodipodi:r2="71.434998"
         sodipodi:r1="36.43185"
         sodipodi:cy="76.706352"
         sodipodi:cx="136.30746"
         sodipodi:sides="5"
         id="path853"
         style="display:none;fill:none;fill-opacity:1;stroke:#784421;stroke-width:18.2678;stroke-linecap:square;stroke-linejoin:miter;stroke-miterlimit:4;stroke-dasharray:none;stroke-dashoffset:0;stroke-opacity:1"
         sodipodi:type="star" />
      <path
         id="lpe_path-effect855"
         style="fill:none;fill-opacity:1;stroke:#784421;stroke-width:18.2678;stroke-linecap:square;stroke-linejoin:miter;stroke-miterlimit:4;stroke-dasharray:none;stroke-dashoffset:0;stroke-opacity:1"
         class="powerclip"
         d="M 70.485028,7.8423696 H 205.33712 V 145.0358 H 70.485028 Z M 145.30376,112.00998 c 21.45572,-5.46748 31.8184,27.36503 45.96274,10.33039 14.14433,-17.03464 -20.03358,-21.18543 -18.60328,-43.280578 1.4303,-22.095146 35.85811,-21.804842 24.02805,-40.5209 -11.83007,-18.716057 -26.33926,12.506404 -46.911,4.318334 C 129.20852,34.669155 140.12339,2.016067 118.66768,7.4835475 97.211956,12.951028 122.42269,36.398361 108.27836,53.433001 94.13402,70.467642 66.451969,49.996619 65.02167,72.091766 c -1.430299,22.095146 28.659987,5.363934 40.49005,24.079991 11.83007,18.716053 -16.193256,38.717353 4.37849,46.905433 20.57175,8.18807 13.95783,-25.59972 35.41355,-31.06721 z" />
    </clipPath>
    <inkscape:path-effect
       effect="powerclip"
       id="path-effect855"
       is_visible="true"
       lpeversion="1"
       inverse="true"
       flatten="false"
       hide_clip="false"
       message="Use fill-rule evenodd on &lt;b&gt;fill and stroke&lt;/b&gt; dialog if no flatten result after convert clip to paths." />
    <clipPath
       id="clipath_lpe_path-effect867"
       clipPathUnits="userSpaceOnUse">
      <path
         sodipodi:type="star"
         style="display:none;fill:none;fill-opacity:1;stroke:#784421;stroke-width:18.2678;stroke-linecap:square;stroke-linejoin:miter;stroke-miterlimit:4;stroke-dasharray:none;stroke-dashoffset:0;stroke-opacity:1"
         id="path869"
         sodipodi:sides="5"
         sodipodi:cx="136.30746"
         sodipodi:cy="76.706352"
         sodipodi:r1="36.43185"
         sodipodi:r2="71.434998"
         sodipodi:arg1="1.3212805"
         sodipodi:arg2="1.949599"
         inkscape:flatsided="false"
         inkscape:rounded="0.47"
         inkscape:randomized="0"
         d="m 145.30376,112.00998 c -21.45572,5.46749 -14.8418,39.25528 -35.41355,31.06721 -20.571746,-8.18808 7.45158,-28.18938 -4.37849,-46.905433 C 93.681657,77.4557 63.591371,94.186912 65.02167,72.091766 66.451969,49.996619 94.13402,70.467642 108.27836,53.433001 122.42269,36.398361 97.211956,12.951028 118.66768,7.4835475 140.12339,2.016067 129.20852,34.669155 149.78027,42.857226 c 20.57174,8.18807 35.08093,-23.034391 46.911,-4.318334 11.83006,18.716058 -22.59775,18.425754 -24.02805,40.5209 -1.4303,22.095148 32.74761,26.245938 18.60328,43.280578 -14.14434,17.03464 -24.50702,-15.79787 -45.96274,-10.33039 z"
         inkscape:transform-center-x="-7.5554945"
         inkscape:transform-center-y="-0.40070516"
         transform="matrix(0.84339869,0.20943943,-0.20943943,0.84339869,37.902171,-16.277904)" />
      <path
         d="M 70.485028,7.8423696 H 205.33712 V 145.0358 H 70.485028 Z M 145.30376,112.00998 c 21.45572,-5.46748 31.8184,27.36503 45.96274,10.33039 14.14433,-17.03464 -20.03358,-21.18543 -18.60328,-43.280578 1.4303,-22.095146 35.85811,-21.804842 24.02805,-40.5209 -11.83007,-18.716057 -26.33926,12.506404 -46.911,4.318334 C 129.20852,34.669155 140.12339,2.016067 118.66768,7.4835475 97.211956,12.951028 122.42269,36.398361 108.27836,53.433001 94.13402,70.467642 66.451969,49.996619 65.02167,72.091766 c -1.430299,22.095146 28.659987,5.363934 40.49005,24.079991 11.83007,18.716053 -16.193256,38.717353 4.37849,46.905433 20.57175,8.18807 13.95783,-25.59972 35.41355,-31.06721 z"
         class="powerclip"
         style="fill:none;fill-opacity:1;stroke:#784421;stroke-width:18.2678;stroke-linecap:square;stroke-linejoin:miter;stroke-miterlimit:4;stroke-dasharray:none;stroke-dashoffset:0;stroke-opacity:1"
         id="lpe_path-effect867" />
    </clipPath>
  </defs>
  <sodipodi:namedview
     inkscape:window-maximized="1"
     inkscape:window-y="-8"
     inkscape:window-x="-8"
     inkscape:window-height="1017"
     inkscape:window-width="1920"
     units="px"
     showgrid="false"
     inkscape:document-rotation="0"
     inkscape:current-layer="layer11"
     inkscape:document-units="px"
     inkscape:cy="393.08074"
     inkscape:cx="433.79181"
     inkscape:zoom="0.98994949"
     inkscape:pageshadow="2"
     inkscape:pageopacity="0.0"
     borderopacity="1.0"
     bordercolor="#666666"
     pagecolor="#ffffff"
     id="base"
     inkscape:snap-global="false" />
  <metadata
     id="metadata852">
    <rdf:RDF>
      <cc:Work
         rdf:about="">
        <dc:format>image/svg+xml</dc:format>
        <dc:type
           rdf:resource="http://purl.org/dc/dcmitype/StillImage" />
        <dc:title />
      </cc:Work>
    </rdf:RDF>
  </metadata>
  <g
     style="opacity:0.677419;mix-blend-mode:normal;filter:url(#filter1424)"
     inkscape:label="Base Shadow"
     id="layer2"
     inkscape:groupmode="layer"
     sodipodi:insensitive="true">
    <rect
       style="fill:#f9f9f9;stroke:#1a1a1a;stroke-width:1.32292;stroke-linecap:square;stroke-miterlimit:4;stroke-dasharray:none"
       id="rect1421"
       width="120.80582"
       height="147.80005"
       x="80.448128"
       y="6.9490075" />
  </g>
  <g
     style="display:inline"
     id="layer1"
     inkscape:groupmode="layer"
     inkscape:label="Base">
    <rect
       y="6.1471992"
       x="79.379051"
       height="147.80005"
       width="120.80582"
       id="rect1418"
       style="fill:#f9f9f9;stroke:#1a1a1a;stroke-width:1.32292;stroke-linecap:square;stroke-miterlimit:4;stroke-dasharray:none" />
  </g>
  <g
     inkscape:groupmode="layer"
     id="layer3"
     inkscape:label="Header">
    <g
       id="g1549">
      <g
         transform="matrix(0.11375917,0,0,0.11375917,77.805799,14.824005)"
         id="g857">
        <circle
           style="fill:none;fill-opacity:1;stroke:#000000;stroke-width:2.07762;stroke-linecap:square;stroke-linejoin:miter;stroke-miterlimit:4;stroke-dasharray:none;stroke-dashoffset:0;stroke-opacity:1"
           id="path833"
           cx="117.06052"
           cy="24.550192"
           r="18.147594" />
        <path
           sodipodi:type="star"
           style="fill:none;fill-opacity:1;stroke:#000000;stroke-width:2.64583;stroke-linecap:square;stroke-linejoin:miter;stroke-miterlimit:4;stroke-dasharray:none;stroke-dashoffset:0;stroke-opacity:1"
           id="path835"
           sodipodi:sides="5"
           sodipodi:cx="136.30746"
           sodipodi:cy="76.706352"
           sodipodi:r1="36.43185"
           sodipodi:r2="71.434998"
           sodipodi:arg1="1.3212805"
           sodipodi:arg2="1.949599"
           inkscape:flatsided="false"
           inkscape:rounded="0.47"
           inkscape:randomized="0"
           d="m 145.30376,112.00998 c -21.45572,5.46749 -14.8418,39.25528 -35.41355,31.06721 -20.571746,-8.18808 7.45158,-28.18938 -4.37849,-46.905433 C 93.681657,77.4557 63.591371,94.186912 65.02167,72.091766 66.451969,49.996619 94.13402,70.467642 108.27836,53.433001 122.42269,36.398361 97.211956,12.951028 118.66768,7.4835475 140.12339,2.016067 129.20852,34.669155 149.78027,42.857226 c 20.57174,8.18807 35.08093,-23.034391 46.911,-4.318334 11.83006,18.716058 -22.59775,18.425754 -24.02805,40.5209 -1.4303,22.095148 32.74761,26.245938 18.60328,43.280578 -14.14434,17.03464 -24.50702,-15.79787 -45.96274,-10.33039 z"
           inkscape:transform-center-x="-7.5554945"
           inkscape:transform-center-y="-0.40070516"
           transform="matrix(0.84339869,0.20943943,-0.20943943,0.84339869,16.78574,-68.526513)" />
        <path
           style="fill:none;fill-opacity:1;stroke:#000000;stroke-width:1.93151;stroke-linecap:square;stroke-linejoin:miter;stroke-miterlimit:4;stroke-dasharray:none;stroke-dashoffset:0;stroke-opacity:1"
           id="path839"
           clip-path="url(#clipPath851)"
           inkscape:path-effect="#path-effect855"
           sodipodi:type="arc"
           sodipodi:cx="137.91107"
           sodipodi:cy="76.439087"
           sodipodi:rx="61.460289"
           sodipodi:ry="62.630962"
           transform="rotate(13.385084,349.98856,-39.664092)"
           d="M 199.37136,76.439087 A 61.460289,62.630962 0 0 1 137.91107,139.07005 61.460289,62.630962 0 0 1 76.450783,76.439087 61.460289,62.630962 0 0 1 137.91107,13.808125 61.460289,62.630962 0 0 1 199.37136,76.439087 Z" />
      </g>
      <g
         id="g865"
         transform="matrix(0.11375917,0,0,0.11375917,173.81175,14.824005)">
        <circle
           r="18.147594"
           cy="24.550192"
           cx="117.06052"
           id="circle859"
           style="fill:none;fill-opacity:1;stroke:#000000;stroke-width:2.07762;stroke-linecap:square;stroke-linejoin:miter;stroke-miterlimit:4;stroke-dasharray:none;stroke-dashoffset:0;stroke-opacity:1" />
        <path
           transform="matrix(0.84339869,0.20943943,-0.20943943,0.84339869,16.78574,-68.526513)"
           inkscape:transform-center-y="-0.40070516"
           inkscape:transform-center-x="-7.5554945"
           d="m 145.30376,112.00998 c -21.45572,5.46749 -14.8418,39.25528 -35.41355,31.06721 -20.571746,-8.18808 7.45158,-28.18938 -4.37849,-46.905433 C 93.681657,77.4557 63.591371,94.186912 65.02167,72.091766 66.451969,49.996619 94.13402,70.467642 108.27836,53.433001 122.42269,36.398361 97.211956,12.951028 118.66768,7.4835475 140.12339,2.016067 129.20852,34.669155 149.78027,42.857226 c 20.57174,8.18807 35.08093,-23.034391 46.911,-4.318334 11.83006,18.716058 -22.59775,18.425754 -24.02805,40.5209 -1.4303,22.095148 32.74761,26.245938 18.60328,43.280578 -14.14434,17.03464 -24.50702,-15.79787 -45.96274,-10.33039 z"
           inkscape:randomized="0"
           inkscape:rounded="0.47"
           inkscape:flatsided="false"
           sodipodi:arg2="1.949599"
           sodipodi:arg1="1.3212805"
           sodipodi:r2="71.434998"
           sodipodi:r1="36.43185"
           sodipodi:cy="76.706352"
           sodipodi:cx="136.30746"
           sodipodi:sides="5"
           id="path861"
           style="fill:none;fill-opacity:1;stroke:#000000;stroke-width:2.64583;stroke-linecap:square;stroke-linejoin:miter;stroke-miterlimit:4;stroke-dasharray:none;stroke-dashoffset:0;stroke-opacity:1"
           sodipodi:type="star" />
        <path
           d="M 199.37136,76.439087 A 61.460289,62.630962 0 0 1 137.91107,139.07005 61.460289,62.630962 0 0 1 76.450783,76.439087 61.460289,62.630962 0 0 1 137.91107,13.808125 61.460289,62.630962 0 0 1 199.37136,76.439087 Z"
           transform="rotate(13.385084,349.98856,-39.664092)"
           sodipodi:ry="62.630962"
           sodipodi:rx="61.460289"
           sodipodi:cy="76.439087"
           sodipodi:cx="137.91107"
           sodipodi:type="arc"
           inkscape:path-effect="#path-effect867"
           clip-path="url(#clipath_lpe_path-effect867)"
           id="path863"
           style="fill:none;fill-opacity:1;stroke:#000000;stroke-width:1.93151;stroke-linecap:square;stroke-linejoin:miter;stroke-miterlimit:4;stroke-dasharray:none;stroke-dashoffset:0;stroke-opacity:1" />
      </g>
      <text
         id="text876"
         y="19.734047"
         x="100.21937"
         style="font-size:8.46667px;line-height:1.25;font-family:Timeless;-inkscape-font-specification:Timeless;letter-spacing:0px;word-spacing:0px;stroke-width:0.264583"
         xml:space="preserve"><tspan
           style="font-size:8.46667px;stroke-width:0.264583"
           y="19.734047"
           x="100.21937"
           id="tspan874"
           sodipodi:role="line">Beadel the Carpenter</tspan></text>
      <g
         id="g1462"
         transform="translate(0,-4.1426777)">
        <path
           style="fill:none;stroke:#000000;stroke-width:0.814346;stroke-linecap:square;stroke-miterlimit:4;stroke-dasharray:none;stroke-opacity:1;marker-start:url(#EmptyDiamondL);marker-end:url(#EmptyDiamondL)"
           d="M 91.318439,34.206844 H 186.94742"
           id="path878"
           sodipodi:nodetypes="cc" />
        <path
           sodipodi:nodetypes="cc"
           id="path1266"
           d="m 102.56377,31.018604 h 73.13831"
           style="fill:none;stroke:#000000;stroke-width:0.712175;stroke-linecap:square;stroke-miterlimit:4;stroke-dasharray:none;stroke-opacity:1;marker-start:url(#marker1270);marker-end:url(#marker1280)" />
      </g>
      <rect
         style="fill:#ffffff;fill-opacity:1;stroke:#000000;stroke-width:1.05833;stroke-linecap:square;stroke-miterlimit:4;stroke-dasharray:none;stroke-opacity:1"
         id="rect1851"
         width="41.577381"
         height="31.183035"
         x="88.068451"
         y="51.026787"
         ry="0" />
      <rect
         ry="0"
         y="51.026787"
         x="147.9776"
         height="31.183035"
         width="41.577381"
         id="rect1853"
         style="fill:#ffffff;fill-opacity:1;stroke:#000000;stroke-width:1.05833;stroke-linecap:square;stroke-miterlimit:4;stroke-dasharray:none;stroke-opacity:1" />
      <text
         xml:space="preserve"
         style="font-size:10.5833px;line-height:1.25;font-family:monofur;-inkscape-font-specification:monofur;letter-spacing:0px;word-spacing:0px;stroke-width:0.264583"
         x="90.113678"
         y="47.813988"
         id="text1857"><tspan
           sodipodi:role="line"
           id="tspan1855"
           x="90.113678"
           y="47.813988"
           style="stroke-width:0.264583">Request</tspan></text>
      <text
         xml:space="preserve"
         style="font-size:10.5833px;line-height:1.25;font-family:monofur;-inkscape-font-specification:monofur;letter-spacing:0px;word-spacing:0px;stroke-width:0.264583"
         x="144.95387"
         y="47.813992"
         id="text1861"><tspan
           sodipodi:role="line"
           id="tspan1859"
           x="144.95387"
           y="47.813992"
           style="stroke-width:0.264583">Fulfilled</tspan></text>
      <text
         xml:space="preserve"
         style="font-size:10.5833px;line-height:1.25;font-family:monofur;-inkscape-font-specification:monofur;letter-spacing:0px;word-spacing:0px;stroke-width:0.264583"
         x="93.360123"
         y="96.383926"
         id="text1865"><tspan
           sodipodi:role="line"
           id="tspan1863"
           x="93.360123"
           y="96.383926"
           style="font-size:5.64444px;stroke-width:0.264583">% Complete</tspan></text>
      <path
         style="fill:#ffffff;fill-opacity:1;stroke:#000000;stroke-width:1.05833;stroke-linecap:square;stroke-miterlimit:4;stroke-dasharray:none;stroke-opacity:1"
         d="m 129.64583,109.23512 h 59.53125"
         id="path1875" />
      <text
         xml:space="preserve"
         style="font-size:5.64444px;line-height:1.25;font-family:monofur;-inkscape-font-specification:monofur;letter-spacing:0px;word-spacing:0px;stroke-width:0.264583"
         x="142.30803"
         y="116.41666"
         id="text1879"><tspan
           sodipodi:role="line"
           id="tspan1877"
           x="142.30803"
           y="116.41666"
           style="font-size:5.64444px;stroke-width:0.264583">Subtotal</tspan></text>
      <text
         id="text1883"
         y="123.59821"
         x="164.53772"
         style="font-size:5.64444px;line-height:1.25;font-family:monofur;-inkscape-font-specification:monofur;letter-spacing:0px;word-spacing:0px;stroke-width:0.264583"
         xml:space="preserve"><tspan
           style="font-size:5.64444px;text-align:end;text-anchor:end;stroke-width:0.264583"
           y="123.59821"
           x="164.53772"
           id="tspan1881"
           sodipodi:role="line">tax</tspan></text>
      <path
         id="path1885"
         d="m 129.64583,128.32292 h 59.53125"
         style="fill:#ffffff;fill-opacity:1;stroke:#000000;stroke-width:1.05833;stroke-linecap:square;stroke-miterlimit:4;stroke-dasharray:none;stroke-opacity:1" />
      <text
         xml:space="preserve"
         style="font-size:8.46667px;line-height:1.25;font-family:monofur;-inkscape-font-specification:monofur;letter-spacing:0px;word-spacing:0px;stroke-width:0.264583"
         x="164.53772"
         y="138.90625"
         id="text1889"><tspan
           sodipodi:role="line"
           id="tspan1887"
           x="164.53772"
           y="138.90625"
           style="font-size:8.46667px;text-align:end;text-anchor:end;stroke-width:0.264583">TOTAL</tspan></text>
    </g>
  </g>
  <g
     style="display:none"
     inkscape:label="Hidden"
     id="layer11"
     inkscape:groupmode="layer">
    <text
       id="text1869"
       y="106.4003"
       x="93.360123"
       style="font-size:10.5833px;line-height:1.25;font-family:monofur;-inkscape-font-specification:monofur;letter-spacing:0px;word-spacing:0px;stroke-width:0.264583"
       xml:space="preserve"><tspan
         style="font-size:5.64444px;stroke-width:0.264583"
         y="106.4003"
         x="93.360123"
         sodipodi:role="line"
         id="tspan1871">Time Taken</tspan></text>
  </g>
</svg>
