<?xml version="1.0" encoding="UTF-8" standalone="no"?>
<svg
   xmlns:dc="http://purl.org/dc/elements/1.1/"
   xmlns:cc="http://creativecommons.org/ns#"
   xmlns:rdf="http://www.w3.org/1999/02/22-rdf-syntax-ns#"
   xmlns:svg="http://www.w3.org/2000/svg"
   xmlns="http://www.w3.org/2000/svg"
   xmlns:sodipodi="http://sodipodi.sourceforge.net/DTD/sodipodi-0.dtd"
   xmlns:inkscape="http://www.inkscape.org/namespaces/inkscape"
   width="1024"
   height="600"
   viewBox="0 0 270.93333 158.75"
   version="1.1"
   id="svg8"
   inkscape:export-filename="C:\Users\mpaul_000\OneDrive\_Me\Game Development\Art\beadel_the_carpenter\symbol.png"
   inkscape:export-xdpi="96.0103"
   inkscape:export-ydpi="96.0103"
   inkscape:version="1.0 (4035a4fb49, 2020-05-01)"
   sodipodi:docname="symbol.svg">
  <defs
     id="defs2">
    <inkscape:path-effect
       effect="powerclip"
       id="path-effect855"
       is_visible="true"
       lpeversion="1"
       inverse="true"
       flatten="false"
       hide_clip="false"
       message="Use fill-rule evenodd on &lt;b&gt;fill and stroke&lt;/b&gt; dialog if no flatten result after convert clip to paths." />
    <clipPath
       clipPathUnits="userSpaceOnUse"
       id="clipPath851">
      <path
         transform="matrix(0.84339869,0.20943943,-0.20943943,0.84339869,37.902171,-16.277904)"
         inkscape:transform-center-y="-0.40070516"
         inkscape:transform-center-x="-7.5554945"
         d="m 145.30376,112.00998 c -21.45572,5.46749 -14.8418,39.25528 -35.41355,31.06721 -20.571746,-8.18808 7.45158,-28.18938 -4.37849,-46.905433 C 93.681657,77.4557 63.591371,94.186912 65.02167,72.091766 66.451969,49.996619 94.13402,70.467642 108.27836,53.433001 122.42269,36.398361 97.211956,12.951028 118.66768,7.4835475 140.12339,2.016067 129.20852,34.669155 149.78027,42.857226 c 20.57174,8.18807 35.08093,-23.034391 46.911,-4.318334 11.83006,18.716058 -22.59775,18.425754 -24.02805,40.5209 -1.4303,22.095148 32.74761,26.245938 18.60328,43.280578 -14.14434,17.03464 -24.50702,-15.79787 -45.96274,-10.33039 z"
         inkscape:randomized="0"
         inkscape:rounded="0.47"
         inkscape:flatsided="false"
         sodipodi:arg2="1.949599"
         sodipodi:arg1="1.3212805"
         sodipodi:r2="71.434998"
         sodipodi:r1="36.43185"
         sodipodi:cy="76.706352"
         sodipodi:cx="136.30746"
         sodipodi:sides="5"
         id="path853"
         style="display:none;fill:none;fill-opacity:1;stroke:#784421;stroke-width:18.2678;stroke-linecap:square;stroke-linejoin:miter;stroke-miterlimit:4;stroke-dasharray:none;stroke-dashoffset:0;stroke-opacity:1"
         sodipodi:type="star" />
      <path
         id="lpe_path-effect855"
         style="fill:none;fill-opacity:1;stroke:#784421;stroke-width:18.2678;stroke-linecap:square;stroke-linejoin:miter;stroke-miterlimit:4;stroke-dasharray:none;stroke-dashoffset:0;stroke-opacity:1"
         class="powerclip"
         d="M 70.485028,7.8423696 H 205.33712 V 145.0358 H 70.485028 Z M 145.30376,112.00998 c 21.45572,-5.46748 31.8184,27.36503 45.96274,10.33039 14.14433,-17.03464 -20.03358,-21.18543 -18.60328,-43.280578 1.4303,-22.095146 35.85811,-21.804842 24.02805,-40.5209 -11.83007,-18.716057 -26.33926,12.506404 -46.911,4.318334 C 129.20852,34.669155 140.12339,2.016067 118.66768,7.4835475 97.211956,12.951028 122.42269,36.398361 108.27836,53.433001 94.13402,70.467642 66.451969,49.996619 65.02167,72.091766 c -1.430299,22.095146 28.659987,5.363934 40.49005,24.079991 11.83007,18.716053 -16.193256,38.717353 4.37849,46.905433 20.57175,8.18807 13.95783,-25.59972 35.41355,-31.06721 z" />
    </clipPath>
  </defs>
  <sodipodi:namedview
     inkscape:snap-page="true"
     inkscape:bbox-nodes="true"
     inkscape:snap-bbox="false"
     id="base"
     pagecolor="#ffffff"
     bordercolor="#666666"
     borderopacity="1.0"
     inkscape:pageopacity="0.0"
     inkscape:pageshadow="2"
     inkscape:zoom="0.98994949"
     inkscape:cx="496.59328"
     inkscape:cy="347.18414"
     inkscape:document-units="px"
     inkscape:current-layer="layer1"
     inkscape:document-rotation="0"
     showgrid="false"
     units="px"
     inkscape:window-width="1920"
     inkscape:window-height="1017"
     inkscape:window-x="-8"
     inkscape:window-y="-8"
     inkscape:window-maximized="1" />
  <metadata
     id="metadata5">
    <rdf:RDF>
      <cc:Work
         rdf:about="">
        <dc:format>image/svg+xml</dc:format>
        <dc:type
           rdf:resource="http://purl.org/dc/dcmitype/StillImage" />
        <dc:title />
      </cc:Work>
    </rdf:RDF>
  </metadata>
  <g
     inkscape:label="Layer 1"
     inkscape:groupmode="layer"
     id="layer1">
    <rect
       ry="0"
       y="0"
       x="0"
       height="158.75"
       width="270.93332"
       id="rect847"
       style="fill:#ffffff;fill-opacity:1;stroke:none;stroke-width:15.875;stroke-linecap:square;stroke-opacity:1" />
    <circle
       style="fill:none;fill-opacity:1;stroke:#000000;stroke-width:2.07762;stroke-linecap:square;stroke-linejoin:miter;stroke-miterlimit:4;stroke-dasharray:none;stroke-dashoffset:0;stroke-opacity:1"
       id="path833"
       cx="138.17696"
       cy="76.798798"
       r="18.147594" />
    <path
       sodipodi:type="star"
       style="fill:none;fill-opacity:1;stroke:#000000;stroke-width:2.64583;stroke-linecap:square;stroke-linejoin:miter;stroke-miterlimit:4;stroke-dasharray:none;stroke-dashoffset:0;stroke-opacity:1"
       id="path835"
       sodipodi:sides="5"
       sodipodi:cx="136.30746"
       sodipodi:cy="76.706352"
       sodipodi:r1="36.43185"
       sodipodi:r2="71.434998"
       sodipodi:arg1="1.3212805"
       sodipodi:arg2="1.949599"
       inkscape:flatsided="false"
       inkscape:rounded="0.47"
       inkscape:randomized="0"
       d="m 145.30376,112.00998 c -21.45572,5.46749 -14.8418,39.25528 -35.41355,31.06721 -20.571746,-8.18808 7.45158,-28.18938 -4.37849,-46.905433 C 93.681657,77.4557 63.591371,94.186912 65.02167,72.091766 66.451969,49.996619 94.13402,70.467642 108.27836,53.433001 122.42269,36.398361 97.211956,12.951028 118.66768,7.4835475 140.12339,2.016067 129.20852,34.669155 149.78027,42.857226 c 20.57174,8.18807 35.08093,-23.034391 46.911,-4.318334 11.83006,18.716058 -22.59775,18.425754 -24.02805,40.5209 -1.4303,22.095148 32.74761,26.245938 18.60328,43.280578 -14.14434,17.03464 -24.50702,-15.79787 -45.96274,-10.33039 z"
       inkscape:transform-center-x="-7.5554945"
       inkscape:transform-center-y="-0.40070516"
       transform="matrix(0.84339869,0.20943943,-0.20943943,0.84339869,37.902172,-16.277904)" />
    <path
       style="fill:none;fill-opacity:1;stroke:#000000;stroke-width:1.93151;stroke-linecap:square;stroke-linejoin:miter;stroke-miterlimit:4;stroke-dasharray:none;stroke-dashoffset:0;stroke-opacity:1"
       id="path839"
       clip-path="url(#clipPath851)"
       inkscape:path-effect="#path-effect855"
       sodipodi:type="arc"
       sodipodi:cx="137.91107"
       sodipodi:cy="76.439087"
       sodipodi:rx="61.460289"
       sodipodi:ry="62.630962"
       d="M 199.37136,76.439087 A 61.460289,62.630962 0 0 1 137.91107,139.07005 61.460289,62.630962 0 0 1 76.450783,76.439087 61.460289,62.630962 0 0 1 137.91107,13.808125 61.460289,62.630962 0 0 1 199.37136,76.439087 Z"
       transform="rotate(13.385084,137.91107,76.439087)" />
  </g>
</svg>
